# xmcd
#
# Track frame offsets:
#	150
#	9911
#	19736
#	30798
#	49015
#	58827
#	68628
#	84139
#	94346
#	107225
#	117717
#	127729
#	144974
#	155086
#	164881
#	176707
#	187201
#	197199
#	207122
#	219402
#	227082
#	237244
#	249942
#	262185
#	272935
#	285415
#	297168
#	309018
#
# Disc length: 4277 seconds
#
# Revision: 1
# Processed by: cddbd v1.5.2PL0 Copyright (c) Steve Scherf et al.
# Submitted via: audiograbber 1.82.02
#
DISCID=9210b31c
DTITLE=John White - Nine Miles of Dry and Dusty
DYEAR=2007
DGENRE=Old-time
TTITLE0=Nine Miles
TTITLE1=Dry and Dusty
TTITLE2=Old Man and Old Woman
TTITLE3=Mississippi Sawyer
TTITLE4=Hogs in the Tater Patch
TTITLE5=New Five Cent Piece
TTITLE6=Silver and Gold Two Step
TTITLE7=Devil Ate a Groundhog
TTITLE8=Peek-a-boo Waltz
TTITLE9=Natchez Under the Hill
TTITLE10=Soldier's Joy
TTITLE11=Arkansas Traveler
TTITLE12=That's My Rabbit, My Dog Caught It
TTITLE13=Black Eyed Susan
TTITLE14=Hi-Lo Schottische
TTITLE15=White Man
TTITLE16=Old Mother Flanagan
TTITLE17=Fisher's Hornpipe
TTITLE18=Sugar in the Gourd
TTITLE19=Mouse in the Cupboard
TTITLE20=Evansville
TTITLE21=Little Foot Waltz
TTITLE22=My Love is But a Lassie-O
TTITLE23=Splish Splash
TTITLE24=Little Rabbit
TTITLE25=Be Nobody's Darling But Mine
TTITLE26=Turkey In The Straw
TTITLE27=Possum Hunter's Blues
EXTD=
EXTT0=
EXTT1=
EXTT2=
EXTT3=
EXTT4=
EXTT5=
EXTT6=
EXTT7=
EXTT8=
EXTT9=
EXTT10=
EXTT11=
EXTT12=
EXTT13=
EXTT14=
EXTT15=
EXTT16=
EXTT17=
EXTT18=
EXTT19=
EXTT20=
EXTT21=
EXTT22=
EXTT23=
EXTT24=
EXTT25=
EXTT26=
EXTT27=
PLAYORDER=
